<svg width="60" height="60" viewBox="0 0 60 60" fill="none" xmlns="http://www.w3.org/2000/svg">
<path d="M7.57501 15.875C7.57501 12.1038 7.57501 10.2181 8.74659 9.04657C9.91816 7.875 11.8038 7.875 15.575 7.875H43.825C47.5962 7.875 49.4819 7.875 50.6534 9.04657C51.825 10.2181 51.825 12.1038 51.825 15.875V44.125C51.825 47.8962 51.825 49.7819 50.6534 50.9534C49.4819 52.125 47.5962 52.125 43.825 52.125H15.575C11.8038 52.125 9.91816 52.125 8.74659 50.9534C7.57501 49.7819 7.57501 47.8962 7.57501 44.125V15.875Z" fill="url(#paint0_linear_41_1170)"/>
<circle cx="29.7" cy="25.0833" r="9.83333" fill="#9281B8"/>
<path fill-rule="evenodd" clip-rule="evenodd" d="M46.9055 51.8458C46.9084 51.9798 46.8029 52.0913 46.6689 52.0961C45.8616 52.125 44.9233 52.125 43.825 52.125H15.575C14.4769 52.125 13.5387 52.125 12.7314 52.0961C12.5975 52.0913 12.492 51.9798 12.4949 51.8458C12.6685 43.8284 20.3051 37.375 29.7002 37.375C39.0953 37.375 46.7318 43.8284 46.9055 51.8458Z" fill="#9281B8"/>
<defs>
<linearGradient id="paint0_linear_41_1170" x1="29.7" y1="7.875" x2="29.7" y2="52.125" gradientUnits="userSpaceOnUse">
<stop stop-color="#61496F"/>
<stop offset="1" stop-color="#3D354E" stop-opacity="0"/>
</linearGradient>
</defs>
</svg>
