<svg width="84" height="84" viewBox="0 0 84 84" fill="none" xmlns="http://www.w3.org/2000/svg">
<path d="M10.5 18.5C10.5 14.7288 10.5 12.8431 11.6716 11.6716C12.8431 10.5 14.7288 10.5 18.5 10.5H65.5C69.2712 10.5 71.1569 10.5 72.3284 11.6716C73.5 12.8431 73.5 14.7288 73.5 18.5V65.5C73.5 69.2712 73.5 71.1569 72.3284 72.3284C71.1569 73.5 69.2712 73.5 65.5 73.5H18.5C14.7288 73.5 12.8431 73.5 11.6716 72.3284C10.5 71.1569 10.5 69.2712 10.5 65.5V18.5Z" fill="url(#paint0_linear_145_375)"/>
<circle cx="42" cy="35" r="14" fill="#EDE484"/>
<path fill-rule="evenodd" clip-rule="evenodd" d="M66.4985 73.2487C66.5004 73.3865 66.3888 73.4994 66.251 73.4996C66.0093 73.5 65.7591 73.5 65.5 73.5H18.5C18.2411 73.5 17.9911 73.5 17.7495 73.4996C17.6117 73.4994 17.5001 73.3865 17.502 73.2487C17.6591 61.7665 28.5671 52.5 42.0003 52.5C55.4334 52.5 66.3415 61.7665 66.4985 73.2487Z" fill="#EDE484"/>
<defs>
<linearGradient id="paint0_linear_145_375" x1="42" y1="10.5" x2="42" y2="73.5" gradientUnits="userSpaceOnUse">
<stop stop-color="#808080"/>
<stop offset="1" stop-color="#3D354E" stop-opacity="0"/>
</linearGradient>
</defs>
</svg>
