<svg width="51" height="50" viewBox="0 0 51 50" fill="none" xmlns="http://www.w3.org/2000/svg">
<path d="M25.5 0.300049C11.9 0.300049 0.799988 11.4001 0.799988 25.0001C0.799988 38.6001 11.9 49.7 25.5 49.7C39.1 49.7 50.2 38.6001 50.2 25.0001C50.2 11.4001 39.1 0.300049 25.5 0.300049ZM7.69999 25.0001C7.69999 19.9001 9.89999 15.2001 13.4 12.0001C14.8 10.7001 17.2 11.1 18.2 12.8L24.4 23.5001C25 24.5001 25 25.7 24.4 26.7L18.2 37.4001C17.2 39.2001 14.8 39.5 13.3 38.1C9.89999 34.7 7.69999 30.1001 7.69999 25.0001ZM32.8 37.2L26.6 26.5001C26 25.5001 26 24.3 26.6 23.3L32.8 12.6C33.8 10.9 36.1 10.5 37.6 11.8C41.1 15 43.3 19.7 43.3 24.8C43.3 29.9 41.1 34.6 37.6 37.8C36.1 39.4 33.8 39 32.8 37.2Z" fill="#EDE484"/>
</svg>
